<svg class="svg-icon" style="width: 1em;height: 1em;vertical-align: middle;fill: currentColor;overflow: hidden;" viewBox="0 0 1024 1024" version="1.1" xmlns="http://www.w3.org/2000/svg"><path d="M104.448 996.352H14.336V685.056H337.92v77.824c0 129.024-104.448 233.472-233.472 233.472z" fill="#703EDD" /><path d="M898.048 909.312H125.952c-62.464 0-112.64-50.176-112.64-112.64V174.08c0-62.464 50.176-112.64 112.64-112.64h772.096c62.464 0 112.64 50.176 112.64 112.64v622.592c0 61.44-50.176 112.64-112.64 112.64z" fill="#9169FF" /><path d="M673.792 285.696H300.032c-34.816 0-62.464 27.648-62.464 62.464s27.648 62.464 62.464 62.464h373.76c34.816 0 62.464-27.648 62.464-62.464s-27.648-62.464-62.464-62.464zM499.712 535.552H300.032c-34.816 0-62.464 27.648-62.464 62.464 0 34.816 27.648 62.464 62.464 62.464h199.68c34.816 0 62.464-27.648 62.464-62.464 0-34.816-27.648-62.464-62.464-62.464z" fill="#FFFFFF" /></svg>